<?xml version="1.0" encoding="iso-8859-1"?>
<!-- Generator: Adobe Illustrator 18.0.0, SVG Export Plug-In . SVG Version: 6.00 Build 0)  -->
<!DOCTYPE svg PUBLIC "-//W3C//DTD SVG 1.1//EN" "http://www.w3.org/Graphics/SVG/1.1/DTD/svg11.dtd">
<svg xmlns="http://www.w3.org/2000/svg" xmlns:xlink="http://www.w3.org/1999/xlink" version="1.1" id="Capa_1" x="0px" y="0px" viewBox="0 0 297 297" style="enable-background:new 0 0 297 297;" xml:space="preserve" width="512px" height="512px">
<path d="M295.114,146.494c-1.874-2.595-4.88-4.133-8.081-4.133h-6.199l-0.133-39.216c-0.019-5.491-4.476-9.933-9.967-9.933h-30.927  l8.061-36.274c0.656-2.951-0.063-6.04-1.954-8.397c-1.892-2.358-4.752-3.73-7.775-3.73H83.308c-4.672,0-8.715,3.244-9.729,7.805  l-1.888,8.494h-20.98c-5.504,0-9.965,4.463-9.965,9.967c0,5.503,4.461,9.966,9.965,9.966h16.552l-4.626,20.819H26.266  c-5.504,0-9.967,4.463-9.967,9.965c0,5.504,4.463,9.967,9.967,9.967h31.942l-4.626,20.815H9.967c-5.504,0-9.967,4.463-9.967,9.967  c0,5.503,4.463,9.966,9.967,9.966h39.188l-8.171,36.773c-0.656,2.951,0.064,6.04,1.954,8.397c1.892,2.357,4.751,3.729,7.773,3.729  h6.404c-0.043,0.747-0.071,1.5-0.071,2.258c0,21.224,17.267,38.491,38.488,38.491c21.221,0,38.485-17.268,38.485-38.491  c0-0.758-0.028-1.511-0.072-2.258h61.702c-0.042,0.747-0.07,1.5-0.07,2.258c0,21.224,17.265,38.491,38.487,38.491  c21.222,0,38.487-17.268,38.487-38.491c0-0.811-0.034-1.614-0.084-2.413c3.487-0.619,6.534-3.077,7.727-6.674l16.299-49.146  C297.501,152.428,296.988,149.09,295.114,146.494z M238.14,113.145h22.663l0.098,29.217h-32.014l6.576-29.592  C236.315,113.008,237.211,113.145,238.14,113.145z M95.532,232.257c-10.232,0-18.557-8.325-18.557-18.559  c0-10.232,8.324-18.558,18.557-18.558c10.23,0,18.554,8.325,18.554,18.558C114.086,223.932,105.763,232.257,95.532,232.257z   M95.532,175.209c-12.964,0-24.441,6.449-31.419,16.3h-0.979L91.302,64.742h134.415l-28.168,126.767h-70.601  C119.972,181.658,108.494,175.209,95.532,175.209z M234.064,232.257c-10.232,0-18.556-8.325-18.556-18.559  c0-10.232,8.323-18.558,18.556-18.558c10.232,0,18.557,8.325,18.557,18.558C252.621,223.932,244.297,232.257,234.064,232.257z   M264.136,189.717c-7.059-8.833-17.912-14.508-30.071-14.508c-4.553,0-8.921,0.8-12.978,2.257l3.37-15.173h48.772L264.136,189.717z" fill="#786A6A"/>
<g>
</g>
<g>
</g>
<g>
</g>
<g>
</g>
<g>
</g>
<g>
</g>
<g>
</g>
<g>
</g>
<g>
</g>
<g>
</g>
<g>
</g>
<g>
</g>
<g>
</g>
<g>
</g>
<g>
</g>
</svg>
